# Blender 4.1.1
# www.blender.org
mtllib Coin.mtl
o Cube.001
v 1.038185 1.113415 -0.113727
v 1.038185 -1.113415 -0.113727
v 1.038185 1.113415 0.113727
v 1.038185 -1.113415 0.113727
v -1.038185 1.113415 -0.113727
v -1.038185 -1.113415 -0.113727
v -1.038185 1.113415 0.113727
v -1.038185 -1.113415 0.113727
v 0.000000 -1.558781 -0.113727
v 0.000000 1.558781 0.113727
v 0.000000 -1.558781 0.113727
v 0.000000 1.558781 -0.113727
v 1.453459 0.000000 -0.113727
v -1.453459 0.000000 0.113727
v 1.453459 0.000000 0.113727
v -1.453459 0.000000 -0.113727
v -0.818738 0.881672 0.113727
v 0.000000 1.234341 0.113727
v -1.146233 -0.000000 0.113727
v 0.818738 0.881672 -0.113727
v 0.000000 1.234341 -0.113727
v 1.146233 -0.000000 -0.113727
v -0.818738 0.881672 -0.113727
v -1.146233 -0.000000 -0.113727
v 0.818738 0.881672 0.113727
v 1.146233 -0.000000 0.113727
v 0.818738 -0.881672 0.113727
v 0.000000 -1.234341 0.113727
v -0.818738 -0.881672 -0.113727
v 0.000000 -1.234341 -0.113727
v 0.818738 -0.881672 -0.113727
v -0.818738 -0.881672 0.113727
v 1.000000 1.072463 -0.085974
v 1.000000 -1.072463 -0.085974
v 1.000000 1.072463 0.085974
v 1.000000 -1.072463 0.085974
v -1.000000 1.072463 -0.085974
v -1.000000 -1.072463 -0.085974
v -1.000000 1.072463 0.085974
v -1.000000 -1.072463 0.085974
v 0.000000 -1.501448 -0.085974
v 0.000000 1.501448 0.085974
v 0.000000 -1.501448 0.085974
v 0.000000 1.501448 -0.085974
v 1.400000 0.000000 -0.085974
v -1.400000 0.000000 0.085974
v 1.400000 0.000000 0.085974
v -1.400000 0.000000 -0.085974
v 0.000000 0.000000 -0.085974
v 0.000000 0.000000 0.085974
vn -0.3942 0.9190 -0.0000
vn -0.0000 -0.0000 1.0000
vn -0.9370 0.3495 -0.0000
vn 0.3942 -0.9190 -0.0000
vn 0.9370 0.3495 -0.0000
vn -0.0000 -0.0000 -1.0000
vn -0.3942 -0.9190 -0.0000
vn 0.3942 0.9190 -0.0000
vn 0.9370 -0.3495 -0.0000
vn -0.9370 -0.3495 -0.0000
vn 0.3956 -0.9184 -0.0000
vn 0.9374 -0.3482 -0.0000
vn -0.3956 0.9184 -0.0000
vn -0.9374 -0.3482 -0.0000
vn 0.3956 0.9184 -0.0000
vn -0.3956 -0.9184 -0.0000
vn -0.9374 0.3482 -0.0000
vn 0.9374 0.3482 -0.0000
vt 0.375962 0.559066
vt 0.492542 0.559066
vt 0.492542 0.775550
vt 0.375962 0.775550
vt 0.099527 0.032678
vt 0.087813 0.003393
vt 0.204393 0.003393
vt 0.284793 0.087813
vt 0.255053 0.099709
vt 0.191517 0.032808
vt 0.653874 0.219877
vt 0.569416 0.219877
vt 0.569416 0.003393
vt 0.653874 0.003393
vt 0.685996 0.666417
vt 0.569416 0.666417
vt 0.569416 0.449933
vt 0.685996 0.449933
vt 0.685996 0.443147
vt 0.569416 0.443147
vt 0.569416 0.226663
vt 0.685996 0.226663
vt 0.284793 0.376000
vt 0.284793 0.492580
vt 0.200373 0.572980
vt 0.188477 0.543239
vt 0.255378 0.479704
vt 0.255509 0.387714
vt 0.087813 0.291580
vt 0.204393 0.291580
vt 0.191973 0.321190
vt 0.099709 0.321320
vt 0.770378 0.666417
vt 0.770378 0.449933
vt 0.033134 0.188477
vt 0.003393 0.200373
vt 0.003393 0.083793
vt 0.033003 0.096214
vt 0.291580 0.559066
vt 0.291580 0.775550
vt 0.188659 0.255509
vt 0.200373 0.284793
vt 0.083793 0.284793
vt 0.096669 0.255378
vt 0.003393 0.488560
vt 0.003393 0.371980
vt 0.032808 0.384856
vt 0.032678 0.476846
vt 0.083793 0.572980
vt 0.096214 0.543370
vt 0.770454 0.443147
vt 0.770454 0.226663
vt 0.770454 0.219877
vt 0.770454 0.003393
vt 0.284793 0.204393
vt 0.255183 0.191973
vt 0.843658 0.449933
vt 0.935648 0.449933
vt 0.935648 0.666417
vt 0.843658 0.666417
vt 0.003393 0.579766
vt 0.070324 0.579766
vt 0.070324 0.796250
vt 0.003393 0.796250
vt 0.827387 0.673203
vt 0.827387 0.889687
vt 0.735397 0.889687
vt 0.735397 0.673203
vt 0.569416 0.889687
vt 0.569416 0.673203
vt 0.661680 0.673203
vt 0.661680 0.889687
vt 0.893881 0.673203
vt 0.893881 0.889687
vt 0.777164 0.666417
vt 0.777164 0.449933
vt 0.728611 0.673203
vt 0.728611 0.889687
vt 0.162588 0.579766
vt 0.162588 0.796250
vt 0.455235 0.863615
vt 0.455235 0.975907
vt 0.291580 0.975907
vt 0.291580 0.863615
vt 0.427105 0.138918
vt 0.372895 0.003393
vt 0.485187 0.003393
vt 0.562630 0.084708
vt 0.777240 0.084745
vt 0.777240 0.003393
vt 0.940896 0.003393
vt 0.940896 0.084745
vt 0.003393 0.915328
vt 0.003393 0.803036
vt 0.167049 0.803036
vt 0.167049 0.915328
vt 0.777240 0.316115
vt 0.777240 0.203823
vt 0.940896 0.203823
vt 0.940896 0.316115
vt 0.427105 0.416755
vt 0.372895 0.552280
vt 0.291580 0.474837
vt 0.291580 0.362545
vt 0.562630 0.470965
vt 0.485187 0.552280
vt 0.003393 0.996607
vt 0.167049 0.996607
vt 0.291580 0.193128
vt 0.291580 0.080836
vt 0.455235 0.782336
vt 0.291580 0.782336
vt 0.369023 0.274443
vt 0.481315 0.274443
vt 0.562630 0.358672
vt 0.481315 0.281230
vt 0.369022 0.281229
vt 0.777240 0.397467
vt 0.940896 0.397467
vt 0.777240 0.197037
vt 0.940896 0.197037
vt 0.562630 0.197000
s 0
usemtl Material.001
f 12/1/1 5/2/1 7/3/1 10/4/1
f 18/5/2 10/6/2 7/7/2 14/8/2 19/9/2 17/10/2
f 14/11/3 7/12/3 5/13/3 16/14/3
f 9/15/4 2/16/4 4/17/4 11/18/4
f 13/19/5 1/20/5 3/21/5 15/22/5
f 12/23/6 1/24/6 13/25/6 22/26/6 20/27/6 21/28/6
f 16/29/6 5/30/6 12/23/6 21/28/6 23/31/6 24/32/6
f 6/33/7 9/15/7 11/18/7 8/34/7
f 26/35/2 15/36/2 3/37/2 10/6/2 18/5/2 25/38/2
f 1/39/8 12/1/8 10/4/8 3/40/8
f 28/41/2 11/42/2 4/43/2 15/36/2 26/35/2 27/44/2
f 9/45/6 6/46/6 16/29/6 24/32/6 29/47/6 30/48/6
f 13/25/6 2/49/6 9/45/6 30/48/6 31/50/6 22/26/6
f 2/51/9 13/19/9 15/22/9 4/52/9
f 8/53/10 14/11/10 16/14/10 6/54/10
f 19/9/2 14/8/2 8/55/2 11/42/2 28/41/2 32/56/2
f 18/57/11 17/58/11 23/59/11 21/60/11
f 17/61/12 19/62/12 24/63/12 23/64/12
f 30/65/13 28/66/13 27/67/13 31/68/13
f 25/69/14 20/70/14 22/71/14 26/72/14
f 28/66/15 30/65/15 29/73/15 32/74/15
f 21/60/16 20/75/16 25/76/16 18/57/16
f 31/77/17 27/78/17 26/72/17 22/71/17
f 32/79/18 29/80/18 24/63/18 19/62/18
f 50/85/2 42/86/2 39/87/2 46/88/2
f 49/101/6 44/102/6 33/103/6 45/104/6
f 48/105/6 37/106/6 44/102/6 49/101/6
f 47/109/2 35/110/2 42/86/2 50/85/2
f 36/113/2 47/109/2 50/85/2 43/114/2
f 38/115/6 48/105/6 49/101/6 41/116/6
f 41/116/6 49/101/6 45/104/6 34/117/6
f 43/114/2 50/85/2 46/88/2 40/122/2
usemtl Material
f 44/81/1 37/82/1 39/83/1 42/84/1
f 46/89/3 39/90/3 37/91/3 48/92/3
f 41/93/4 34/94/4 36/95/4 43/96/4
f 45/97/5 33/98/5 35/99/5 47/100/5
f 38/107/7 41/93/7 43/96/7 40/108/7
f 33/111/8 44/81/8 42/84/8 35/112/8
f 34/118/9 45/97/9 47/100/9 36/119/9
f 40/120/10 46/89/10 48/92/10 38/121/10
