# Blender 4.0.2
# www.blender.org
mtllib Crate.mtl
o Cube
v 1.000000 1.000000 -1.032899
v 1.000000 -1.000000 -1.032899
v 1.000000 1.000000 0.967101
v 1.000000 -1.000000 0.967101
v -1.000000 1.000000 -1.032899
v -1.000000 -1.000000 -1.032899
v -1.000000 1.000000 0.967101
v -1.000000 -1.000000 0.967101
v 1.074512 1.074512 -1.107412
v 1.074512 -1.074512 -1.107411
v 1.074512 1.074512 1.041613
v 1.074512 -1.074512 1.041613
v -1.074512 1.074512 -1.107412
v -1.074512 -1.074512 -1.107411
v -1.074512 1.074512 1.041613
v -1.074512 -1.074512 1.041613
v -0.895591 1.074512 -0.728490
v -0.883990 1.074512 0.851092
v 0.695592 1.074512 0.862692
v -0.895592 -1.074512 -0.728491
v 0.695591 -1.074512 0.862692
v -0.883991 -1.074512 0.851091
v 0.895592 1.074512 0.662692
v 0.883991 1.074512 -0.916891
v -0.695592 1.074512 -0.928491
v -0.695592 -1.074512 -0.928491
v 0.883991 -1.074512 -0.916890
v 0.895592 -1.074512 0.662693
v -1.074512 -0.695592 0.862693
v -1.074512 0.895592 -0.728491
v -1.074512 0.883991 0.851092
v 1.074512 0.883991 0.851092
v 1.074512 0.895592 -0.728491
v 1.074512 -0.695592 0.862693
v -0.895591 0.895591 -0.728490
v -0.895591 0.895592 -0.728490
v 0.683991 0.883991 0.851092
v 0.885374 0.895592 -0.728491
v 0.895592 -0.495592 0.662693
v 0.895592 0.885374 0.662692
v -0.495592 0.895592 -0.728491
v -1.074512 0.695592 -0.928491
v -1.074512 -0.883991 -0.916890
v -1.074512 -0.895592 0.662693
v 1.074512 -0.895592 0.662693
v 1.074512 -0.883991 -0.916890
v 1.074512 0.695592 -0.928491
v -0.885375 -0.895592 0.662693
v -0.895592 -0.885374 -0.728491
v -0.895591 0.495591 -0.728491
v 0.495592 -0.895592 0.662693
v 0.883991 -0.883991 -0.916890
v 0.883991 0.683991 -0.916891
v 0.895592 -0.895592 0.662693
v -0.683991 -0.883991 -0.916890
v -0.883991 0.883991 1.041613
v 0.695592 0.895592 1.041613
v -0.895592 -0.695592 1.041613
v -0.895592 -0.695592 -1.107411
v 0.695592 0.895592 -1.107412
v -0.883991 0.883991 -1.107412
v -0.883990 0.883991 0.851090
v -0.883990 0.883991 0.851092
v -0.886907 -0.686907 0.454008
v -0.891217 -0.100002 -0.132897
v -0.883991 -0.683991 0.851091
v -0.889749 0.100002 0.067099
v -0.883990 -0.683990 0.851091
v -0.100002 0.099998 0.856850
v 0.695592 0.895592 0.862692
v 0.695592 0.895592 0.862692
v -0.100000 0.889749 0.067101
v -0.883991 0.883991 -0.716891
v -0.886907 0.486907 -0.719806
v 0.695592 0.895592 -0.918274
v 0.486907 0.686907 -0.919806
v -0.695592 0.885374 -0.928491
v -0.695592 -0.495592 -0.928491
v -0.100000 0.100000 -0.924116
v -0.686907 -0.486907 -0.919806
v -0.486907 0.886907 -0.719806
v 0.100000 0.891217 -0.132899
v 0.695592 0.895592 0.462693
v 0.686907 0.886907 0.454008
v -0.883991 0.883991 0.851092
v -0.895592 -0.695592 0.862693
v -0.895512 -0.684692 0.851793
v -0.895592 -0.695592 -0.918273
v -0.885374 0.695592 -0.928491
v 0.495592 0.695592 -0.928491
v -0.895592 -0.695592 0.462693
v -0.695592 -0.895592 1.041613
v 0.883991 -0.883991 1.041613
v 0.895592 0.695592 1.041613
v 0.895592 0.695592 -1.107411
v 0.883991 -0.883991 -1.107411
v -0.695592 -0.895592 -1.107411
v 0.695591 -0.885374 0.862692
v -0.695592 -0.895592 0.852475
v -0.486907 -0.686907 0.854008
v 0.695592 0.495592 0.862692
v 0.695592 0.495592 0.862692
v 0.100002 -0.099998 0.858318
v 0.686907 0.486907 0.854007
v -0.695592 -0.895592 -0.528491
v -0.100000 -0.891217 0.067101
v -0.686907 -0.886907 -0.519806
v 0.486907 -0.886907 0.654008
v 0.889749 -0.100000 -0.132899
v 0.886907 0.686907 -0.519807
v 0.891217 0.100000 0.067101
v -0.695592 -0.895592 -0.928491
v 0.100000 -0.100000 -0.922648
v 0.100000 -0.889749 -0.132899
v 0.886907 -0.486907 0.654008
v 0.883991 -0.883991 0.651092
v -0.495592 -0.695592 0.862693
v 0.885374 -0.695592 0.862693
v 0.895592 0.695592 0.852475
v 0.895592 0.695592 -0.528491
v 0.895592 0.695592 -0.928491
vn -0.0000 1.0000 -0.0000
vn -0.0000 -0.0000 1.0000
vn -1.0000 -0.0000 -0.0000
vn -0.0000 -1.0000 -0.0000
vn 1.0000 -0.0000 -0.0000
vn -0.0000 -0.0000 -1.0000
vn 1.0000 -0.0000 -0.0073
vn 0.0073 -0.0000 -1.0000
vn -0.7071 -0.0000 0.7071
vn -1.0000 -0.0000 0.0073
vn -0.0073 -0.0000 1.0000
vn 0.7071 -0.0000 -0.7071
vn -0.0000 -1.0000 -0.0073
vn -0.0000 -0.0073 -1.0000
vn -0.0000 0.7071 0.7071
vn -0.0000 1.0000 0.0073
vn -0.0000 0.0073 1.0000
vn -0.0000 -0.7071 -0.7071
vn 0.0073 -1.0000 -0.0000
vn 1.0000 -0.0073 -0.0000
vn -0.7071 0.7071 -0.0000
vn -0.0073 1.0000 -0.0000
vn -1.0000 0.0073 -0.0000
vn 0.7071 -0.7071 -0.0000
vt 0.757886 0.671131
vt 0.757887 0.879327
vt 0.549690 0.879327
vt 0.549689 0.671131
vt 0.773399 0.462935
vt 0.773399 0.671131
vt 0.565203 0.671130
vt 0.565203 0.462934
vt 0.565203 0.223711
vt 0.773399 0.223712
vt 0.773399 0.431908
vt 0.565203 0.431907
vt 0.773399 0.208197
vt 0.565202 0.208197
vt 0.565202 0.000000
vt 0.773399 0.000001
vt 0.549689 0.879327
vt 0.341493 0.879328
vt 0.341493 0.671132
vt 0.325979 0.879328
vt 0.117783 0.879327
vt 0.117783 0.671130
vt 0.325979 0.671131
vt 0.546577 0.184265
vt 0.545368 0.019833
vt 0.565201 0.000000
vt 0.565202 0.223709
vt 0.341493 0.223709
vt 0.361326 0.203876
vt 0.525757 0.205084
vt 0.380937 0.018625
vt 0.360117 0.039445
vt 0.341492 0.000000
vt 0.321659 0.467254
vt 0.341492 0.447421
vt 0.341492 0.671130
vt 0.322867 0.631685
vt 0.117783 0.671129
vt 0.137615 0.651297
vt 0.302047 0.652505
vt 0.136408 0.486865
vt 0.117783 0.447420
vt 0.157227 0.466045
vt 0.360118 0.263156
vt 0.361326 0.427587
vt 0.341493 0.447420
vt 0.341493 0.223711
vt 0.565203 0.223712
vt 0.545370 0.243544
vt 0.380938 0.242336
vt 0.525758 0.428796
vt 0.546577 0.407976
vt 0.565203 0.447421
vt 0.321659 0.019834
vt 0.341492 0.000001
vt 0.341492 0.223711
vt 0.322867 0.184266
vt 0.136408 0.039445
vt 0.137615 0.203877
vt 0.117783 0.223710
vt 0.117783 0.000000
vt 0.157228 0.018626
vt 0.302047 0.205085
vt 0.321659 0.243543
vt 0.341492 0.223711
vt 0.341493 0.447420
vt 0.322868 0.407975
vt 0.157228 0.242336
vt 0.117784 0.447420
vt 0.137616 0.427587
vt 0.302048 0.428795
vt 0.136408 0.263155
vt 0.117783 0.223711
vt 0.341493 0.447422
vt 0.565203 0.447421
vt 0.565203 0.671130
vt 0.545370 0.651298
vt 0.546577 0.486866
vt 0.525758 0.466046
vt 0.361326 0.467255
vt 0.380938 0.652506
vt 0.341493 0.671131
vt 0.360118 0.631686
vt 0.980614 0.835565
vt 0.961989 0.835566
vt 0.961986 0.671131
vt 0.981819 0.671131
vt 0.981819 0.671131
vt 0.117781 0.117125
vt 0.117783 0.204806
vt 0.088339 0.234250
vt 0.088337 0.117125
vt 0.936012 0.462934
vt 0.936014 0.627368
vt 0.916325 0.627368
vt 0.917387 0.482546
vt 0.895663 0.504270
vt 0.895359 0.462934
vt 0.976667 0.462934
vt 0.976667 0.627367
vt 0.936015 0.627368
vt 0.936014 0.627368
vt 0.936318 0.586032
vt 0.958042 0.607756
vt 0.956978 0.462934
vt 0.937833 0.184267
vt 0.773399 0.184267
vt 0.773399 0.124003
vt 0.835398 0.062003
vt 0.856219 0.082822
vt 0.773399 0.165642
vt 0.937833 0.164435
vt 0.099157 0.281416
vt 0.097947 0.282626
vt 0.056612 0.282322
vt 0.057518 0.281416
vt 0.117783 0.281416
vt 0.117418 0.447420
vt 0.098792 0.447420
vt 0.098367 0.364418
vt 0.094926 0.634292
vt 0.095382 0.696428
vt 0.094926 0.758565
vt 0.095830 0.757657
vt 0.095990 0.779429
vt 0.076301 0.779472
vt 0.076301 0.613467
vt 0.095990 0.613424
vt 0.095830 0.635196
vt 0.116572 0.276791
vt 0.116573 0.235152
vt 0.117479 0.234250
vt 0.117783 0.275586
vt 0.029447 0.117125
vt 0.029449 -0.000000
vt 0.058892 0.029443
vt 0.058890 0.117125
vt 0.855008 0.586032
vt 0.876732 0.607756
vt 0.875670 0.462934
vt 0.895359 0.462934
vt 0.895357 0.627368
vt 0.854704 0.627368
vt 0.961986 0.835566
vt 0.942154 0.835566
vt 0.942156 0.671131
vt 0.960781 0.671131
vt 0.814355 0.504270
vt 0.814052 0.462934
vt 0.854704 0.462934
vt 0.854704 0.627369
vt 0.835015 0.627369
vt 0.836079 0.482546
vt 0.993708 0.388145
vt 0.975083 0.388145
vt 0.975081 0.223711
vt 0.994914 0.223711
vt 0.088337 0.117125
vt 0.058894 0.117125
vt 0.058892 0.029443
vt 0.088336 0.000000
vt 0.773399 0.306712
vt 0.774007 0.223711
vt 0.792632 0.223751
vt 0.792632 0.389756
vt 0.774007 0.389715
vt 0.020899 0.275889
vt 0.019993 0.276795
vt 0.019689 0.235460
vt 0.020899 0.234250
vt 0.029069 0.276791
vt 0.028163 0.275889
vt 0.028163 0.234250
vt 0.029373 0.235455
vt 0.075237 0.634330
vt 0.075693 0.696468
vt 0.075237 0.758604
vt 0.076141 0.757700
vt 0.076301 0.779472
vt 0.056612 0.779429
vt 0.056612 0.613424
vt 0.076301 0.613467
vt 0.076141 0.635239
vt 0.922320 0.855399
vt 0.757887 0.855396
vt 0.757887 0.795131
vt 0.819888 0.733132
vt 0.840708 0.753952
vt 0.757887 0.836770
vt 0.922320 0.835566
vt 0.922321 0.835566
vt 0.957664 0.019612
vt 0.958725 0.164434
vt 0.939036 0.164434
vt 0.939039 -0.000000
vt 0.979692 0.000000
vt 0.979387 0.041336
vt 0.939036 -0.000000
vt 0.897397 0.000001
vt 0.814052 0.627369
vt 0.773399 0.627368
vt 0.773399 0.462934
vt 0.793088 0.462934
vt 0.792024 0.607756
vt 0.813748 0.586032
vt 0.117098 0.779472
vt 0.117099 0.943906
vt 0.097266 0.943906
vt 0.098473 0.779472
vt 0.075237 0.613424
vt 0.056612 0.613424
vt 0.056976 0.447420
vt 0.075607 0.448557
vt 0.076028 0.530422
vt 0.075601 0.447420
vt 0.116877 0.613424
vt 0.076448 0.612214
vt 0.117783 0.612518
vt 0.019689 0.566402
vt 0.019689 0.732406
vt 0.000000 0.732450
vt 0.000160 0.710678
vt 0.001064 0.711582
vt 0.000608 0.649446
vt 0.001064 0.587308
vt 0.000160 0.588216
vt 0.000000 0.566445
vt 0.027858 0.234250
vt 0.028163 0.275586
vt 0.026952 0.276791
vt 0.026952 0.235152
vt 0.000003 0.117124
vt 0.000003 0.029443
vt 0.029447 -0.000000
vt 0.029447 0.117125
vt 0.873941 0.388145
vt 0.873939 0.223711
vt 0.893627 0.223711
vt 0.892566 0.368533
vt 0.914290 0.346808
vt 0.914594 0.388145
vt 0.956453 0.223711
vt 0.975079 0.223711
vt 0.975081 0.388145
vt 0.955248 0.388145
vt 0.811258 0.243323
vt 0.812321 0.388145
vt 0.792632 0.388145
vt 0.792632 0.223711
vt 0.833285 0.223711
vt 0.832981 0.265047
vt 0.979692 -0.000000
vt 0.999525 -0.000000
vt 0.999523 0.164434
vt 0.980898 0.164434
vt 0.058892 0.204806
vt 0.088335 0.234250
vt 0.018625 0.566402
vt 0.000000 0.566372
vt 0.000000 0.400327
vt 0.018625 0.400357
vt 0.019234 0.483380
vt 0.024227 0.276792
vt 0.023321 0.275889
vt 0.023321 0.234250
vt 0.024531 0.235456
vt 0.023321 0.234250
vt 0.023321 0.275889
vt 0.022414 0.276795
vt 0.022110 0.235460
vt 0.001064 0.255122
vt 0.000159 0.256027
vt -0.000000 0.234250
vt 0.019689 0.234282
vt 0.019689 0.400327
vt 0.000000 0.400295
vt 0.000160 0.378518
vt 0.001064 0.379426
vt 0.000608 0.317273
vt 0.922321 0.835566
vt 0.923527 0.671131
vt 0.942152 0.671131
vt 0.942153 0.835566
vt 0.833589 0.265047
vt 0.833285 0.223711
vt 0.873937 0.223711
vt 0.873939 0.388145
vt 0.854250 0.388145
vt 0.855312 0.243323
vt 0.881888 0.671131
vt 0.076301 0.943906
vt 0.056612 0.943906
vt 0.056614 0.779472
vt 0.097266 0.779472
vt 0.096962 0.820808
vt 0.075239 0.799084
vt 0.117783 0.029443
vt 0.088339 0.001605
vt 0.088339 0.000000
vt 0.996500 0.627368
vt 0.976667 0.627368
vt 0.976669 0.462934
vt 0.995294 0.462934
vt 0.037262 0.613549
vt 0.055887 0.613508
vt 0.055887 0.779513
vt 0.037262 0.779554
vt 0.036653 0.696552
vt 0.025742 0.234250
vt 0.026952 0.235455
vt 0.026952 0.235455
vt 0.026648 0.276791
vt 0.025742 0.275889
vt 0.037717 0.468328
vt 0.036813 0.469232
vt 0.036653 0.447460
vt 0.056342 0.447503
vt 0.056342 0.613508
vt 0.036653 0.613465
vt 0.036813 0.591694
vt 0.037717 0.592602
vt 0.037262 0.530464
vt 0.098251 0.323961
vt 0.099157 0.323055
vt 0.029443 0.234250
vt 0.000000 0.204806
vt 0.942155 0.835566
vt 0.960781 0.835566
vt 0.961986 1.000000
vt 0.942153 1.000000
vt 0.036198 0.779554
vt 0.055887 0.779554
vt 0.055885 0.943988
vt 0.015232 0.943988
vt 0.015537 0.902651
vt 0.037260 0.924375
vt 0.058892 0.204806
vt 0.029449 0.234250
vt 0.981819 1.000000
vt 0.961986 1.000000
vt 0.963192 0.835566
vt 0.981817 0.835566
vt 0.955248 0.388145
vt 0.914596 0.388145
vt 0.914594 0.223711
vt 0.934283 0.223711
vt 0.933221 0.368533
vt 0.954944 0.346808
vt 0.036923 0.447460
vt 0.036653 0.281416
vt 0.056342 0.281416
vt 0.056218 0.303192
vt 0.055313 0.302286
vt 0.055869 0.364438
vt 0.055514 0.426590
vt 0.056417 0.425683
vt 0.056612 0.447460
vt 0.022110 0.275585
vt 0.020899 0.276795
vt 0.020899 0.235155
vt 0.021806 0.234250
vt 0.024531 0.275586
vt 0.024835 0.234250
vt 0.025742 0.235153
vt 0.025742 0.276792
vt 0.115088 0.613424
vt 0.115358 0.779469
vt 0.096733 0.779469
vt 0.095990 0.696447
vt 0.096463 0.613424
s 0
usemtl Material.001
f 1/1/1 5/2/1 7/3/1 3/4/1
f 4/5/2 3/6/2 7/7/2 8/8/2
f 8/9/3 7/10/3 5/11/3 6/12/3
f 6/13/4 2/14/4 4/15/4 8/16/4
f 2/17/5 1/18/5 3/19/5 4/4/5
f 6/20/6 5/21/6 1/22/6 2/23/6
f 25/24/1 24/25/1 9/26/1 13/27/1 15/28/1 18/29/1 17/30/1
f 23/31/1 25/24/1 17/30/1 19/32/1 11/33/1 9/26/1 24/25/1
f 18/29/1 15/28/1 11/33/1 19/32/1
f 93/34/2 12/35/2 11/36/2 94/37/2
f 94/37/2 11/36/2 15/38/2 56/39/2 57/40/2 58/41/2 16/42/2 12/35/2 93/34/2 92/43/2
f 56/39/2 15/38/2 16/42/2 58/41/2
f 44/44/3 43/45/3 14/46/3 16/47/3 15/48/3 31/49/3 29/50/3
f 42/51/3 44/44/3 29/50/3 30/52/3 13/53/3 14/46/3 43/45/3
f 31/49/3 15/48/3 13/53/3 30/52/3
f 22/54/4 16/55/4 14/56/4 20/57/4
f 28/58/4 27/59/4 10/60/4 12/61/4 16/55/4 22/54/4 21/62/4
f 26/63/4 28/58/4 21/62/4 20/57/4 14/56/4 10/60/4 27/59/4
f 46/64/5 10/65/5 9/66/5 47/67/5
f 45/68/5 47/67/5 9/66/5 11/69/5 32/70/5 33/71/5 34/72/5 12/73/5 10/65/5 46/64/5
f 32/70/5 11/69/5 12/73/5 34/72/5
f 10/74/6 14/75/6 13/76/6 61/77/6 59/78/6 97/79/6 96/80/6
f 59/78/6 60/81/6 9/82/6 10/74/6 96/80/6 95/83/6 97/79/6
f 61/77/6 13/76/6 9/82/6 60/81/6
f 36/84/7 17/85/7 18/86/7 63/87/7 62/88/7
f 65/89/7 50/90/7 35/91/7 67/92/7
f 22/93/7 20/94/7 49/95/7 48/96/7 64/97/7 66/98/7
f 21/99/8 22/100/8 66/101/8 68/102/8 100/103/8 99/104/8 98/105/8
f 18/106/8 19/107/8 101/108/8 102/108/8 103/109/8 69/110/8 70/111/8 63/112/8
f 71/113/9 37/114/9 104/115/9 101/116/9 19/117/9 17/118/9 36/119/9 72/120/9
f 51/121/9 106/122/9 105/123/9 107/124/9 49/125/9 20/126/9 21/127/9 98/128/9 108/129/9
f 35/130/9 50/131/9 74/132/9 73/133/9
f 109/134/10 54/135/10 39/136/10 111/137/10
f 110/138/10 38/139/10 40/140/10 23/141/10 24/142/10 53/143/10
f 52/144/10 27/145/10 28/146/10 54/147/10
f 76/148/11 53/149/11 24/150/11 25/151/11 77/152/11 75/153/11
f 112/154/11 26/155/11 27/156/11 52/157/11
f 113/158/11 79/159/11 78/160/11 112/161/11
f 114/162/12 54/163/12 28/164/12 26/165/12 112/166/12
f 78/167/12 80/168/12 55/169/12 112/170/12
f 115/171/12 39/172/12 54/173/12 116/174/12
f 83/175/12 82/176/12 41/177/12 81/178/12 77/179/12 25/180/12 23/181/12 40/182/12 84/183/12
f 31/184/13 30/185/13 41/186/13 82/187/13 72/188/13 36/189/13 62/190/13 85/191/13
f 40/192/13 38/193/13 33/194/13 32/195/13 37/196/13 84/197/13
f 86/198/14 69/110/14 103/109/14 117/199/14
f 37/200/14 32/201/14 34/202/14 118/203/14 119/204/14 104/205/14
f 29/206/14 31/207/14 85/208/14 86/209/14
f 35/210/15 30/211/15 29/212/15 87/213/15 67/214/15
f 29/212/15 86/215/15 87/213/15
f 41/216/15 30/211/15 35/210/15 73/217/15 81/218/15
f 34/219/15 33/220/15 38/221/15 110/222/15 120/223/15 111/224/15 39/225/15 115/226/15 118/227/15
f 100/228/15 68/229/15 86/230/15 117/231/15
f 106/232/16 51/233/16 54/234/16 114/235/16
f 43/236/16 44/237/16 48/238/16 49/239/16 107/240/16 55/241/16
f 54/242/16 45/243/16 46/244/16 52/245/16
f 88/246/17 89/247/17 42/248/17 43/249/17 55/250/17 80/251/17
f 52/252/17 46/253/17 47/254/17 121/255/17
f 90/256/17 79/159/17 113/158/17 121/257/17
f 121/258/18 47/259/18 45/260/18 54/261/18 109/262/18
f 76/263/18 90/264/18 121/265/18 53/266/18
f 54/267/18 51/268/18 108/269/18 116/270/18
f 91/271/18 64/272/18 48/273/18 44/274/18 42/275/18 89/276/18 74/277/18 50/278/18 65/279/18
f 85/191/19 62/190/19 63/280/19 70/281/19 57/282/19 56/283/19
f 81/284/19 73/285/19 61/286/19 60/287/19 75/288/19 77/289/19
f 71/281/19 72/188/19 82/187/19 83/290/19
f 88/291/20 59/292/20 61/293/20 73/294/20 74/295/20 89/296/20
f 91/297/20 65/89/20 67/92/20 87/298/20 86/299/20
f 85/300/20 56/301/20 58/302/20 86/303/20
f 86/304/21 58/305/21 57/306/21 70/307/21 69/308/21
f 86/309/21 68/310/21 66/311/21 64/312/21 91/313/21
f 90/314/21 76/315/21 75/316/21 60/317/21 59/318/21 88/319/21 80/320/21 78/321/21 79/322/21
f 84/323/21 37/114/21 71/113/21 83/324/21
f 112/325/22 105/326/22 106/232/22 114/235/22
f 97/327/22 112/328/22 52/329/22 96/330/22
f 99/331/22 92/332/22 93/333/22 116/334/22 108/335/22 98/336/22
f 109/134/23 111/137/23 120/337/23 121/338/23
f 96/339/23 52/340/23 121/341/23 95/342/23
f 116/343/23 93/344/23 94/345/23 119/346/23 118/347/23 115/348/23
f 94/349/24 92/350/24 99/351/24 100/352/24 117/353/24 103/354/24 102/355/24 101/355/24 104/356/24 119/357/24
f 53/358/24 121/359/24 120/360/24 110/361/24
f 55/362/24 107/363/24 105/364/24 112/365/24
f 97/366/24 95/367/24 121/368/24 113/369/24 112/370/24
