# Blender 4.0.2
# www.blender.org
mtllib TrafficCone.mtl
o Cube.002
v 0.000000 -0.769592 0.921824
v 0.000000 -0.722118 0.855244
v 0.000000 -0.952526 0.984879
v 0.000000 -1.000000 0.951028
v 0.000000 -0.769592 -0.919337
v 0.000000 -0.722118 -0.852757
v 0.000000 -0.952526 -0.982393
v 0.000000 -1.000000 -0.948541
v -0.949784 -1.000000 0.951028
v -0.930821 -0.952526 0.984879
v -0.983636 -0.952526 0.932065
v -0.867766 -0.769592 0.921824
v -0.854001 -0.722118 0.855244
v -0.920580 -0.769592 0.869009
v -0.949784 -1.000000 -0.948541
v -0.983636 -0.952526 -0.929578
v -0.930821 -0.952526 -0.982393
v -0.854001 -0.722118 -0.852757
v -0.867766 -0.769592 -0.919337
v -0.920580 -0.769592 -0.866522
v 0.949784 -1.000000 0.951028
v 0.983636 -0.952526 0.932065
v 0.930821 -0.952526 0.984879
v 0.854001 -0.722118 0.855244
v 0.867766 -0.769592 0.921824
v 0.920580 -0.769592 0.869009
v 0.949784 -1.000000 -0.948541
v 0.930821 -0.952526 -0.982393
v 0.983636 -0.952526 -0.929578
v 0.854001 -0.722118 -0.852757
v 0.920580 -0.769592 -0.866522
v 0.867766 -0.769592 -0.919337
v 0.000000 -1.000000 0.001243
v -0.949784 -1.000000 0.001243
v -0.983636 -0.952526 0.001243
v -0.854001 -0.722118 0.001243
v -0.920580 -0.769592 0.001243
v 0.949784 -1.000000 0.001243
v 0.983636 -0.952526 0.001243
v 0.854001 -0.722118 0.001243
v 0.920580 -0.769592 0.001243
v -0.099930 1.953928 0.101173
v 0.000000 -0.722118 0.719500
v 0.718257 -0.722118 0.001243
v 0.000000 -0.722118 -0.717014
v -0.718257 -0.722118 0.001243
v 0.506386 -0.722118 0.507629
v -0.000000 2.092344 0.001243
v 0.506386 -0.722118 -0.505143
v -0.506386 -0.722118 -0.505143
v -0.506386 -0.722118 0.507629
v -0.000000 1.953928 0.142983
v 0.099930 1.953928 0.101173
v -0.000000 0.615905 0.431242
v 0.141740 1.953928 0.001243
v 0.099930 1.953928 -0.098687
v -0.000000 1.953928 -0.140497
v -0.099930 1.953928 -0.098687
v -0.141740 1.953928 0.001243
v -0.031832 2.092344 0.033075
v 0.031832 2.092344 0.033075
v -0.000000 2.092344 0.046393
v 0.045150 2.092344 0.001243
v 0.031832 2.092344 -0.030589
v -0.000000 2.092344 -0.043908
v -0.031832 2.092344 -0.030589
v -0.045150 2.092344 0.001243
v 0.303158 0.615905 0.304401
v 0.429999 0.615905 0.001243
v 0.303158 0.615905 -0.301915
v -0.429999 0.615905 0.001243
v -0.303158 0.615905 -0.301915
v -0.000000 0.615905 -0.428755
v -0.303158 0.615905 0.304401
v -0.000000 -0.053106 0.575371
v 0.574128 -0.053106 0.001243
v -0.404772 -0.053106 -0.403529
v -0.000000 -0.053106 -0.572885
v 0.404772 -0.053106 0.406015
v 0.404772 -0.053106 -0.403529
v -0.574128 -0.053106 0.001243
v -0.404772 -0.053106 0.406015
v 0.235415 1.061913 0.236658
v 0.167672 1.507920 0.168915
v 0.235415 1.061913 -0.234172
v 0.167672 1.507920 -0.166429
v -0.333912 1.061913 0.001243
v -0.237826 1.507920 0.001243
v -0.235415 1.061913 0.236658
v -0.167672 1.507920 0.168915
v -0.000000 1.507920 0.239069
v -0.000000 1.061913 0.335155
v 0.237826 1.507920 0.001243
v 0.333912 1.061913 0.001243
v -0.167672 1.507920 -0.166429
v -0.235415 1.061913 -0.234172
v -0.000000 1.507920 -0.236583
v -0.000000 1.061913 -0.332669
vn -0.0000 0.3259 0.9454
vn 0.9454 0.3259 -0.0000
vn -0.0000 -1.0000 -0.0000
vn 0.3245 0.5413 -0.7757
vn -0.9454 0.3259 -0.0000
vn -0.0000 0.3259 -0.9454
vn -0.6903 -0.2165 0.6903
vn -0.4534 0.7674 0.4534
vn -0.6903 -0.2165 -0.6903
vn -0.4534 0.7674 -0.4534
vn 0.6903 -0.2165 0.6903
vn 0.4534 0.7674 0.4534
vn 0.6903 -0.2165 -0.6903
vn 0.4534 0.7674 -0.4534
vn -0.8142 -0.5806 -0.0000
vn -0.6356 0.4382 0.6356
vn -0.5806 0.8142 -0.0000
vn -0.6356 0.4382 -0.6356
vn -0.0000 -0.5806 -0.8142
vn -0.0000 0.8142 -0.5806
vn 0.6356 0.4382 -0.6356
vn 0.8142 -0.5806 -0.0000
vn 0.5806 0.8142 -0.0000
vn 0.6356 0.4382 0.6356
vn -0.0000 -0.5806 0.8142
vn -0.0000 0.8142 0.5806
vn -0.0000 1.0000 -0.0000
vn -0.3786 0.1949 -0.9048
vn -0.9048 0.1949 -0.3786
vn 0.3786 0.1949 0.9048
vn 0.9048 0.1949 -0.3786
vn 0.3245 0.5413 0.7757
vn -0.7757 0.5413 0.3245
vn 0.7757 0.5413 0.3245
vn 0.9048 0.1949 0.3786
vn -0.9048 0.1949 0.3786
vn -0.3786 0.1949 0.9048
vn 0.3786 0.1949 -0.9048
vn -0.3245 0.5413 0.7757
vn 0.7757 0.5413 -0.3245
vn -0.7757 0.5413 -0.3245
vn -0.3245 0.5413 -0.7757
vt 0.867052 0.180077
vt 0.826828 0.180952
vt 0.826828 0.013212
vt 0.867052 0.000149
vt 0.816243 0.180077
vt 0.776019 0.180952
vt 0.776019 0.013212
vt 0.816243 0.000149
vt 0.395555 0.802223
vt 0.197777 0.802223
vt 0.197777 0.604445
vt 0.395555 0.604445
vt 0.170781 0.033502
vt 0.155124 0.028237
vt 0.176051 -0.000000
vt 0.181038 0.001677
vt 0.917860 0.180077
vt 0.877637 0.180952
vt 0.877637 0.013212
vt 0.917860 0.000149
vt 0.867052 0.554230
vt 0.826828 0.555105
vt 0.826828 0.387365
vt 0.867052 0.374302
vt 0.925474 0.367189
vt 0.914890 0.374153
vt 0.917860 0.360006
vt 0.395555 0.976840
vt 0.409419 0.973973
vt 0.406552 0.987837
vt 0.874666 0.741342
vt 0.864081 0.748306
vt 0.867052 0.734159
vt 0.765083 0.973973
vt 0.778947 0.976840
vt 0.767949 0.987837
vt 0.874666 0.367189
vt 0.864081 0.374153
vt 0.867052 0.360006
vt 0.409419 0.618310
vt 0.395555 0.615443
vt 0.406552 0.604445
vt 0.823857 0.367189
vt 0.813272 0.374153
vt 0.816243 0.360006
vt 0.765082 0.618310
vt 0.767949 0.604445
vt 0.778947 0.615443
vt 0.925474 0.183594
vt 0.874666 0.362839
vt 0.877637 0.348692
vt 0.587251 0.973973
vt 0.587251 0.987837
vt 0.826828 0.722845
vt 0.823857 0.736992
vt 0.874666 0.557747
vt 0.765083 0.796142
vt 0.778947 0.796142
vt 0.776019 0.348692
vt 0.773049 0.362839
vt 0.823857 0.183594
vt 0.587251 0.618310
vt 0.587251 0.604445
vt 0.826828 0.348692
vt 0.823857 0.362839
vt 0.874666 0.183594
vt 0.409419 0.796142
vt 0.395555 0.796142
vt 0.000000 0.802223
vt 0.000000 0.604445
vt 0.874666 -0.000000
vt 0.874666 0.374153
vt 0.587251 0.945707
vt 0.692697 0.901588
vt 0.736816 0.796142
vt 0.437685 0.796142
vt 0.481804 0.901588
vt 0.197777 1.000000
vt 0.000000 1.000000
vt 0.823857 0.000000
vt 0.925474 -0.000000
vt 0.692697 0.690695
vt 0.587251 0.646576
vt 0.395555 1.000000
vt 0.773049 0.130191
vt 0.735327 0.127106
vt 0.750567 0.033501
vt 0.773049 0.035340
vt 0.709056 0.118271
vt 0.734910 0.028236
vt 0.386524 0.130191
vt 0.348802 0.127106
vt 0.364043 0.033502
vt 0.386524 0.035341
vt 0.193262 0.130191
vt 0.155540 0.127106
vt 0.193262 0.035341
vt 0.481804 0.690695
vt 0.374300 0.001677
vt 0.381462 0.002263
vt 0.579787 0.035341
vt 0.557305 0.033502
vt 0.567563 0.001677
vt 0.574724 0.002263
vt 0.348386 0.028237
vt 0.369313 -0.000000
vt 0.322532 0.118272
vt 0.579787 0.130191
vt 0.542065 0.127106
vt 0.515794 0.118272
vt 0.541648 0.028237
vt 0.129270 0.118272
vt 0.773049 0.379197
vt 0.778165 0.374153
vt 0.781722 0.382826
vt 0.773049 0.386383
vt 0.785351 0.374153
vt 0.790395 0.379270
vt 0.790395 0.386455
vt 0.785278 0.391499
vt 0.778093 0.391499
vt 0.562575 0.000000
vt 0.188200 0.002263
vt 0.755837 -0.000000
vt 0.760825 0.001677
vt 0.767986 0.002263
vt 0.102199 0.454720
vt 0.038781 0.433394
vt 0.077562 0.298342
vt 0.125060 0.314314
vt 0.488724 0.454720
vt 0.425305 0.433394
vt 0.464086 0.298342
vt 0.511584 0.314314
vt 0.579787 0.462169
vt 0.579787 0.319893
vt 0.295461 0.454720
vt 0.232043 0.433394
vt 0.270824 0.298342
vt 0.318322 0.314314
vt 0.193262 0.462169
vt 0.193262 0.319893
vt 0.386524 0.462169
vt 0.386524 0.319893
vt 0.681986 0.454720
vt 0.618567 0.433394
vt 0.657348 0.298341
vt 0.704846 0.314314
vt 0.773049 0.462169
vt 0.773049 0.319893
vt 0.773049 0.604445
vt 0.659125 0.595126
vt 0.579786 0.568446
vt 0.386524 0.604445
vt 0.272601 0.595126
vt 0.193262 0.604445
vt 0.079339 0.595126
vt 0.193262 0.568446
vt 0.579787 0.604445
vt 0.465863 0.595126
vt 0.386524 0.568447
vt -0.000000 0.568446
vt 0.103416 0.208307
vt 0.140300 0.220710
vt 0.489940 0.208307
vt 0.526824 0.220710
vt 0.579787 0.225042
vt 0.296678 0.208307
vt 0.333562 0.220710
vt 0.193262 0.225042
vt 0.386524 0.225042
vt 0.683203 0.208306
vt 0.720086 0.220710
vt 0.773049 0.225042
s 0
usemtl Cube.002
f 3/1/1 1/2/1 12/3/1 10/4/1
f 39/5/2 41/6/2 26/7/2 22/8/2
f 34/9/3 33/10/3 4/11/3 9/12/3
f 56/13/4 57/14/4 65/15/4 64/16/4
f 35/17/5 37/18/5 20/19/5 16/20/5
f 7/21/6 5/22/6 32/23/6 28/24/6
f 9/25/7 10/26/7 11/27/7
f 12/28/8 13/29/8 14/30/8
f 15/31/9 16/32/9 17/33/9
f 18/34/10 19/35/10 20/36/10
f 21/37/11 22/38/11 23/39/11
f 24/40/12 25/41/12 26/42/12
f 27/43/13 28/44/13 29/45/13
f 30/46/14 31/47/14 32/48/14
f 34/49/15 9/25/15 11/27/15 35/17/15
f 10/26/16 12/50/16 14/51/16 11/27/16
f 36/52/17 18/34/17 20/36/17 37/53/17
f 19/54/18 17/33/18 16/32/18 20/55/18
f 8/56/19 15/31/19 17/33/19 7/21/19
f 6/57/20 30/46/20 32/48/20 5/58/20
f 31/59/21 29/45/21 28/44/21 32/60/21
f 38/61/22 27/43/22 29/45/22 39/5/22
f 40/62/23 24/40/23 26/42/23 41/63/23
f 25/64/24 23/39/24 22/38/24 26/65/24
f 4/66/25 21/37/25 23/39/25 3/1/25
f 2/67/26 13/29/26 12/28/26 1/68/26
f 33/10/3 38/69/3 21/70/3 4/11/3
f 24/40/26 2/67/26 1/68/26 25/41/26
f 9/71/25 4/66/25 3/1/25 10/4/25
f 18/34/20 6/57/20 5/58/20 19/35/20
f 27/72/19 8/56/19 7/21/19 28/24/19
f 17/33/6 19/54/6 5/22/6 7/21/6
f 6/57/27 18/34/27 36/52/27 46/73/27 50/74/27 45/75/27
f 23/39/1 25/64/1 1/2/1 3/1/1
f 43/76/27 51/77/27 46/73/27 36/52/27 13/29/27 2/67/27
f 8/78/3 27/79/3 38/69/3 33/10/3
f 30/46/23 40/62/23 41/63/23 31/47/23
f 21/80/22 38/61/22 39/5/22 22/8/22
f 13/29/17 36/52/17 37/53/17 14/30/17
f 15/81/15 34/49/15 35/17/15 16/20/15
f 11/27/5 14/51/5 37/18/5 35/17/5
f 30/46/27 6/57/27 45/75/27 49/82/27 44/83/27 40/62/27
f 15/84/3 8/78/3 33/10/3 34/9/3
f 29/45/2 31/59/2 41/6/2 39/5/2
f 97/85/28 95/86/28 58/87/28 57/88/28
f 95/86/29 88/89/29 59/90/29 58/87/29
f 91/91/30 84/92/30 53/93/30 52/94/30
f 93/95/31 86/96/31 56/13/31 55/97/31
f 40/62/27 44/83/27 47/98/27 43/76/27 2/67/27 24/40/27
f 52/94/32 53/93/32 61/99/32 62/100/32
f 59/101/33 42/102/33 60/103/33 67/104/33
f 53/93/34 55/105/34 63/106/34 61/99/34
f 84/92/35 93/107/35 55/105/35 53/93/35
f 88/108/36 90/109/36 42/102/36 59/101/36
f 90/109/37 91/110/37 52/111/37 42/102/37
f 86/96/38 97/112/38 57/14/38 56/13/38
f 62/113/27 61/114/27 48/115/27 60/116/27
f 63/117/27 64/118/27 48/115/27 61/114/27
f 65/119/27 66/120/27 48/115/27 64/118/27
f 67/121/27 60/116/27 48/115/27 66/120/27
f 42/102/39 52/111/39 62/122/39 60/103/39
f 55/97/40 56/13/40 64/16/40 63/123/40
f 58/87/41 59/90/41 67/124/41 66/125/41
f 57/88/42 58/87/42 66/125/42 65/126/42
f 80/127/38 78/128/38 73/129/38 70/130/38
f 82/131/37 75/132/37 54/133/37 74/134/37
f 81/135/36 82/131/36 74/134/36 71/136/36
f 79/137/35 76/138/35 69/139/35 68/140/35
f 76/141/31 80/127/31 70/130/31 69/142/31
f 75/143/30 79/137/30 68/140/30 54/144/30
f 77/145/29 81/146/29 71/147/29 72/148/29
f 78/149/28 77/145/28 72/148/28 73/150/28
f 45/151/28 50/152/28 77/145/28 78/149/28
f 50/152/29 46/153/29 81/146/29 77/145/29
f 43/154/30 47/155/30 79/137/30 75/143/30
f 44/156/31 49/157/31 80/127/31 76/141/31
f 47/155/35 44/158/35 76/138/35 79/137/35
f 46/159/36 51/160/36 82/131/36 81/135/36
f 51/160/37 43/161/37 75/132/37 82/131/37
f 49/157/38 45/162/38 78/128/38 80/127/38
f 70/130/38 73/129/38 98/163/38 85/164/38
f 85/164/38 98/163/38 97/112/38 86/96/38
f 74/134/37 54/133/37 92/165/37 89/166/37
f 89/166/37 92/165/37 91/110/37 90/109/37
f 71/136/36 74/134/36 89/166/36 87/167/36
f 87/167/36 89/166/36 90/109/36 88/108/36
f 68/140/35 69/139/35 94/168/35 83/169/35
f 83/169/35 94/168/35 93/107/35 84/92/35
f 69/142/31 70/130/31 85/164/31 94/170/31
f 94/170/31 85/164/31 86/96/31 93/95/31
f 54/144/30 68/140/30 83/169/30 92/171/30
f 92/171/30 83/169/30 84/92/30 91/91/30
f 72/148/29 71/147/29 87/172/29 96/173/29
f 96/173/29 87/172/29 88/89/29 95/86/29
f 73/150/28 72/148/28 96/173/28 98/174/28
f 98/174/28 96/173/28 95/86/28 97/85/28
